<svg width="139" height="92" viewBox="0 0 139 92" fill="none" xmlns="http://www.w3.org/2000/svg">
<g clip-path="url(#clip0_238_21048)">
<path d="M100.559 21.6696C103.287 21.7344 105.623 21.6863 107.765 21.8731C109.86 22.0304 111.933 22.4022 113.951 22.9829C114.349 23.0736 114.649 24.8158 114.423 25.6011C114.197 26.3865 113.035 27.6089 112.549 27.498C108.969 26.681 105.454 25.4833 101.908 24.4182C101.275 24.3217 100.661 24.1344 100.082 23.862C99.8168 23.8015 99.8026 22.8452 99.9527 22.3913C100.069 22.0899 100.282 21.8359 100.559 21.6696Z" fill="#020202"/>
<path d="M90.3579 20.7361C89.5308 22.221 88.4683 21.8855 87.5201 21.7621C85.5149 21.3967 83.5462 20.854 81.637 20.1403C80.3811 19.5251 79.0694 19.0311 77.7197 18.6651C76.7475 18.4432 76.3351 17.9074 76.3435 16.4448C76.3346 16.28 76.7278 15.8816 76.7328 15.8595C80.0999 15.9771 83.0354 16.7634 86.3754 16.8981C87.0464 16.9117 87.7155 16.832 88.4017 16.7794C89.7468 16.6912 90.8502 18.4773 90.3579 20.7361Z" fill="#020202"/>
<path d="M126.603 27.3354C128.557 27.4327 131.723 27.9228 133.082 27.9773C134.415 27.9367 135.748 28.0308 137.063 28.2582C137.676 28.4215 138.207 29.3562 138.564 30.1351C138.651 30.3642 138.029 31.1522 137.726 31.6642C136.448 33.9062 135.053 32.6814 133.656 32.3857C132.259 32.0901 128.438 30.4974 126.936 30.1545C125.434 29.8115 125.099 29.3401 126.172 27.4927C126.365 27.2579 126.832 27.2482 126.603 27.3354Z" fill="#020202"/>
<path d="M29.5894 17.4892C30.9309 15.3482 32.6442 13.4641 34.6484 11.9257C35.35 11.3772 36.1183 10.9199 36.935 10.5647C37.7478 10.1515 38.6016 9.82442 39.4824 9.58861C39.9228 9.45502 40.3729 9.35569 40.8287 9.29151C41.2889 9.21056 42.4066 10.628 42.5495 11.4277C42.6924 12.2275 42.3192 13.8625 41.9746 13.9466C41.63 14.0307 41.4059 14.0957 41.1105 14.1678C38.0636 14.9285 35.1922 16.2701 32.6536 18.1189C32.2256 18.5446 31.75 18.9197 31.2362 19.2366C31.0071 19.3238 30.2993 18.86 29.9943 18.465C29.7549 18.1936 29.6124 17.8504 29.5894 17.4892Z" fill="#020202"/>
<path d="M24.8117 26.6041C25.2129 26.9616 25.474 27.4501 25.5484 27.9823C25.6228 28.5145 25.5056 29.0558 25.2179 29.5096C24.6156 31.2318 23.6516 33.011 22.8473 34.8033C22.124 35.9626 21.537 37.2015 21.098 38.4954C20.8761 39.4676 20.3062 39.8257 18.8537 39.7731C18.7322 39.7467 18.6179 39.6942 18.5186 39.6194C18.4193 39.5446 18.3374 39.4491 18.2785 39.3396C18.712 36.0773 19.3712 32.8489 20.2513 29.6778C20.4026 29.0149 20.4314 28.2776 20.5486 27.5605C20.793 26.082 22.8179 25.3586 24.8117 26.6041Z" fill="#020202"/>
<path d="M54.8057 10.692C56.8339 10.6668 60.0098 11.1127 61.386 11.1944C62.72 11.1352 64.0565 11.222 65.3717 11.4532C65.9904 11.5944 66.5108 12.5733 66.8507 13.325C66.9379 13.5541 66.3163 14.3421 66.0085 14.8763C64.7347 17.0961 63.451 15.8965 61.9434 15.5757C60.4359 15.2548 56.7849 13.6311 55.441 13.5104C54.097 13.3896 53.6234 12.8166 54.487 10.968C54.5456 10.6094 55.0178 10.5777 54.8057 10.692Z" fill="#020202"/>
<path d="M14.0299 65.8004C17.3131 66.3871 31.0517 48.4618 29.9743 46.8676C28.8969 45.2734 7.71606 41.1131 5.61321 42.5858C4.27334 43.4656 11.1001 65.2945 14.0299 65.8004Z" fill="#010101"/>
</g>
<defs>
<clipPath id="clip0_238_21048">
<rect width="64.4094" height="126.983" fill="white" transform="translate(138.992 28.2568) rotate(102.857)"/>
</clipPath>
</defs>
</svg>
